<?xml version="1.0" standalone="no"?>
<!DOCTYPE svg PUBLIC "-//W3C//DTD SVG 20010904//EN"
 "http://www.w3.org/TR/2001/REC-SVG-20010904/DTD/svg10.dtd">
<svg version="1.0" xmlns="http://www.w3.org/2000/svg"
 width="687.000000pt" height="207.000000pt" viewBox="0 0 687.000000 207.000000"
 preserveAspectRatio="xMidYMid meet">
<g transform="translate(0.000000,207.000000) scale(0.100000,-0.100000)"
fill="#EA0000" stroke="none">
<path d="M2133 1612 c-107 -38 -161 -108 -183 -234 -8 -43 -10 -167 -8 -359 5
-346 10 -372 88 -449 61 -62 118 -80 251 -80 177 0 289 57 339 172 19 42 24
76 28 171 l4 117 -136 0 -136 0 0 -85 c0 -134 -35 -187 -112 -170 -57 13 -58
20 -58 360 0 333 3 352 51 369 69 24 118 -36 119 -146 l0 -58 130 0 130 0 0
88 c0 156 -41 236 -148 289 -52 25 -68 28 -182 31 -101 2 -135 -1 -177 -16z"/>
<path d="M4530 1613 c-96 -33 -156 -97 -185 -196 -14 -49 -16 -101 -12 -375 2
-208 8 -330 16 -354 23 -72 72 -131 135 -163 58 -29 63 -30 200 -30 156 1 186
9 251 67 87 76 97 134 93 538 l-3 325 -30 55 c-36 65 -96 114 -167 135 -69 20
-238 19 -298 -2z m205 -207 c33 -33 37 -86 33 -386 -4 -276 -8 -299 -57 -320
-37 -15 -76 1 -96 40 -14 26 -15 73 -13 336 l3 306 28 24 c36 30 71 31 102 0z"/>
<path d="M440 1060 l0 -552 238 4 c277 6 308 13 383 88 59 59 79 120 79 239
-1 111 -17 155 -77 210 l-48 44 42 43 c50 52 63 93 63 199 -1 129 -49 203
-159 247 -51 20 -78 22 -288 26 l-233 4 0 -552z m373 329 c44 -20 59 -82 36
-148 -13 -38 -28 -47 -96 -56 l-53 -7 0 111 0 111 45 0 c24 0 55 -5 68 -11z
m8 -430 c35 -14 54 -52 54 -108 -1 -100 -30 -131 -125 -131 l-50 0 0 129 0
129 48 -5 c26 -2 59 -9 73 -14z"/>
<path d="M1240 1060 l0 -550 305 0 305 0 0 115 0 115 -175 0 -175 0 0 110 0
110 160 0 160 0 0 115 0 115 -160 0 -160 0 0 95 0 95 165 0 165 0 0 115 0 115
-295 0 -295 0 0 -550z"/>
<path d="M2750 1060 l0 -550 130 0 130 0 0 135 c0 118 3 140 22 180 12 25 25
45 28 45 3 0 35 -80 72 -177 l66 -178 142 -3 c132 -2 141 -1 136 15 -4 10 -59
148 -124 308 l-118 289 113 234 c62 128 113 237 113 242 0 6 -55 10 -134 10
l-133 0 -89 -205 -89 -206 -3 206 -2 205 -130 0 -130 0 0 -550z"/>
<path d="M3540 1060 l0 -550 130 0 130 0 0 225 0 225 85 0 85 0 0 -225 0 -225
130 0 130 0 0 550 0 550 -130 0 -130 0 0 -210 0 -210 -85 0 -85 0 0 210 0 210
-130 0 -130 0 0 -550z"/>
<path d="M5140 1060 l0 -550 130 0 130 0 0 230 0 230 160 0 160 0 0 115 0 115
-160 0 -160 0 0 90 0 90 175 0 175 0 0 115 0 115 -305 0 -305 0 0 -550z"/>
<path d="M5850 1060 l0 -550 135 0 135 0 0 230 0 230 160 0 160 0 0 115 0 115
-160 0 -160 0 0 90 0 90 170 0 170 0 0 115 0 115 -305 0 -305 0 0 -550z"/>
</g>
</svg>
